
  <svg width="160.5" height="48" viewBox="0 0 856 256" fill="none" xmlns="http://www.w3.org/2000/svg" xmlns:xlink="http://www.w3.org/1999/xlink" version="1.1">
    
        <g transform="translate(0, 0)">
          <svg xmlns="http://www.w3.org/2000/svg" width="256" height="256" fill="none" viewBox="0 0 256 256"><rect width="256" height="256" fill="#FF3E00" rx="60"/><g clip-path="url(#clip0_7_282)"><path fill="#fff" d="M193.034 61.7966C176.407 37.8474 143.305 30.8305 119.509 45.9322L77.5594 72.7796C66.1187 79.9491 58.1865 91.6949 55.8983 104.966C53.9153 116.102 55.5933 127.542 60.9322 137.458C57.2712 142.949 54.8305 149.051 53.7627 155.458C51.3221 169.034 54.5255 183.068 62.4577 194.203C79.2373 218.153 112.186 225.169 135.983 210.068L177.932 183.373C189.373 176.203 197.305 164.458 199.593 151.186C201.576 140.051 199.898 128.61 194.559 118.695C198.22 113.203 200.661 107.102 201.729 100.695C204.322 86.9661 201.119 72.9322 193.034 61.7966Z"/><path fill="#FF3E00" d="M115.39 196.491C101.814 200 87.6271 194.661 79.6949 183.22C74.8135 176.508 72.983 168.119 74.3559 159.881C74.661 158.508 74.9661 157.288 75.2711 155.915L76.0338 153.475L78.1694 155C83.2033 158.661 88.6949 161.407 94.644 163.237L96.1694 163.695L96.0169 165.22C95.8644 167.356 96.4745 169.644 97.6949 171.475C100.136 174.983 104.407 176.661 108.525 175.593C109.441 175.288 110.356 174.983 111.119 174.525L152.915 147.83C155.051 146.458 156.424 144.475 156.881 142.034C157.339 139.593 156.729 137 155.356 135.017C152.915 131.508 148.644 129.983 144.525 131.051C143.61 131.356 142.695 131.661 141.932 132.119L125.915 142.339C123.322 144.017 120.424 145.237 117.373 146C103.797 149.508 89.6101 144.169 81.6779 132.729C76.9491 126.017 74.9661 117.627 76.4915 109.39C77.8644 101.458 82.7457 94.2881 89.6101 90.0169L131.559 63.322C134.152 61.644 137.051 60.4237 140.102 59.5084C153.678 56 167.864 61.3389 175.797 72.7796C180.678 79.4915 182.508 87.8813 181.136 96.1186C180.83 97.4915 180.525 98.7118 180.068 100.085L179.305 102.525L177.169 101C172.136 97.3389 166.644 94.5932 160.695 92.7627L159.169 92.305L159.322 90.7796C159.475 88.644 158.864 86.3559 157.644 84.5254C155.203 81.0169 150.932 79.4915 146.814 80.5593C145.898 80.8644 144.983 81.1694 144.22 81.6271L102.424 108.322C100.288 109.695 98.9152 111.678 98.4576 114.119C97.9999 116.559 98.6101 119.153 99.983 121.136C102.424 124.644 106.695 126.169 110.814 125.102C111.729 124.797 112.644 124.491 113.407 124.034L129.424 113.814C132.017 112.136 134.915 110.915 137.966 110C151.542 106.491 165.729 111.83 173.661 123.271C178.542 129.983 180.373 138.373 179 146.61C177.627 154.542 172.746 161.712 165.881 165.983L123.932 192.678C121.339 194.356 118.441 195.576 115.39 196.491Z"/></g><defs><clipPath id="clip0_7_282"><rect width="149.644" height="180" fill="#fff" transform="translate(53 38)"/></clipPath></defs></svg>
        </g>
         
        <g transform="translate(300, 0)">
          <svg xmlns="http://www.w3.org/2000/svg" width="256" height="256" fill="none" viewBox="0 0 256 256"><rect width="256" height="256" fill="#242938" rx="60"/><path fill="url(#paint0_linear_2_119)" fill-rule="evenodd" d="M83 110C88.9991 86.0009 104.001 74 128 74C164 74 168.5 101 186.5 105.5C198.501 108.501 209 104.001 218 92C212.001 115.999 196.999 128 173 128C137 128 132.5 101 114.5 96.5C102.499 93.4991 92 97.9991 83 110ZM38 164C43.9991 140.001 59.0009 128 83 128C119 128 123.5 155 141.5 159.5C153.501 162.501 164 158.001 173 146C167.001 169.999 151.999 182 128 182C92 182 87.5 155 69.5 150.5C57.4991 147.499 47 151.999 38 164Z" clip-rule="evenodd"/><defs><linearGradient id="paint0_linear_2_119" x1="86.5" x2="163.5" y1="74" y2="185.5" gradientUnits="userSpaceOnUse"><stop stop-color="#32B1C1"/><stop offset="1" stop-color="#14C6B7"/></linearGradient></defs></svg>
        </g>
         
        <g transform="translate(600, 0)">
          <svg xmlns="http://www.w3.org/2000/svg" width="256" height="256" fill="none" viewBox="0 0 256 256"><rect width="256" height="256" fill="#007ACC" rx="60"/><path fill="#fff" d="M56.6112 128.849L56.5299 139.333H73.1902H89.8505L89.8505 186.673V234.012H101.635H113.419V186.673L113.419 139.333H130.079H146.739V129.052C146.739 123.363 146.618 118.609 146.455 118.487C146.333 118.325 126.056 118.243 101.472 118.284L56.7331 118.406L56.6112 128.849Z"/><path fill="#fff" d="M206.567 118.108C213.068 119.734 218.026 122.619 222.577 127.332C224.934 129.852 228.428 134.444 228.713 135.541C228.794 135.866 217.66 143.343 210.915 147.528C210.671 147.691 209.695 146.634 208.598 145.009C205.307 140.214 201.853 138.141 196.57 137.776C188.809 137.247 183.811 141.311 183.852 148.097C183.852 150.088 184.136 151.266 184.949 152.892C186.655 156.427 189.825 158.54 199.781 162.847C218.107 170.731 225.949 175.932 230.826 183.327C236.271 191.576 237.49 204.742 233.792 214.535C229.729 225.181 219.651 232.414 205.469 234.812C201.081 235.584 190.678 235.462 185.965 234.609C175.684 232.78 165.932 227.701 159.918 221.037C157.561 218.436 152.969 211.65 153.254 211.162C153.375 211 154.432 210.35 155.61 209.659C156.748 209.009 161.056 206.53 165.119 204.173L172.474 199.906L174.018 202.182C176.172 205.473 180.885 209.984 183.73 211.487C191.897 215.795 203.113 215.185 208.639 210.228C210.996 208.074 211.971 205.839 211.971 202.548C211.971 199.581 211.605 198.281 210.061 196.046C208.07 193.202 204.007 190.804 192.466 185.806C179.26 180.117 173.571 176.582 168.37 170.974C165.363 167.724 162.518 162.522 161.34 158.174C160.365 154.558 160.121 145.496 160.893 141.839C163.615 129.08 173.246 120.181 187.143 117.539C191.654 116.686 202.137 117.011 206.567 118.108Z"/></svg>
        </g>
        
  </svg>
  