<?xml version="1.0" encoding="UTF-8" standalone="no"?>
<svg
   version="1.1"
   width="500"
   height="500"
   id="svg707"
   xmlns="http://www.w3.org/2000/svg"
   xmlns:svg="http://www.w3.org/2000/svg">
  <defs
     id="defs633">
    <clipPath
       id="nNtZJazbrIRO">
      <path
         fill="none"
         stroke="none"
         d="M 0,0 H 1484 V 866 H 0 Z"
         id="path630" />
    </clipPath>
  </defs>
  <g
     clip-path="url(#nNtZJazbrIRO)"
     id="g705"
     transform="translate(-406.4912,-178.65749)">
    <g
       id="g703">
      <rect
         fill="#ffffff"
         stroke="none"
         x="0"
         y="0"
         width="1484"
         height="866"
         fill-opacity="1"
         id="rect635" />
      <path
         fill="none"
         stroke="#c0c0c0"
         paint-order="fill stroke markers"
         d="m 15.5,0.5 v 866 m 0,-866 v 866 m 54,-866 v 866 m 53,-866 v 866 m 53,-866 v 866 m 54,-866 v 866 m 53,-866 v 866 m 54,-866 v 866 m 53,-866 v 866 m 53,-866 v 866 m 54,-866 v 866 m 53,-866 v 866 m 54,-866 v 866 m 53,-866 v 866 m 53,-866 v 866 m 54,-866 v 866 m 53,-866 v 866 m 54,-866 v 866 m 53,-866 v 866 m 53,-866 v 866 m 54,-866 v 866 m 53,-866 v 866 m 53,-866 v 866 m 54,-866 v 866 m 53,-866 v 866 m 54,-866 v 866 m 53,-866 v 866 m 53,-866 v 866 m 54,-866 v 866"
         stroke-opacity="1"
         stroke-linecap="round"
         stroke-linejoin="round"
         stroke-miterlimit="10"
         id="path637" />
      <path
         fill="none"
         stroke="#c0c0c0"
         paint-order="fill stroke markers"
         d=""
         stroke-opacity="0.235294"
         stroke-linecap="round"
         stroke-linejoin="round"
         stroke-miterlimit="10"
         id="path639" />
      <path
         fill="none"
         stroke="#c0c0c0"
         paint-order="fill stroke markers"
         d="m 0.5,1.5 h 1484 m -1484,0 h 1484 m -1484,54 h 1484 m -1484,53 h 1484 m -1484,53 h 1484 m -1484,54 h 1484 m -1484,53 h 1484 m -1484,54 h 1484 m -1484,53 h 1484 m -1484,53 h 1484 m -1484,54 h 1484 m -1484,53 h 1484 m -1484,54 h 1484 m -1484,53 h 1484 m -1484,53 h 1484 m -1484,54 h 1484 m -1484,53 h 1484 m -1484,54 h 1484"
         stroke-opacity="1"
         stroke-linecap="round"
         stroke-linejoin="round"
         stroke-miterlimit="10"
         id="path641" />
      <path
         fill="none"
         stroke="#c0c0c0"
         paint-order="fill stroke markers"
         d=""
         stroke-opacity="0.235294"
         stroke-linecap="round"
         stroke-linejoin="round"
         stroke-miterlimit="10"
         id="path643" />
      <path
         fill="#1565c0"
         stroke="none"
         paint-order="stroke fill markers"
         fill-rule="evenodd"
         d="M -37.691823,-211.86321 V 322.07391 H 1136.9698 v -533.93712 z"
         fill-opacity="0.0980392"
         id="path645" />
      <path
         fill="none"
         stroke="#1565c0"
         paint-order="fill stroke markers"
         d="M 1136.9698,322.07391 H -5"
         stroke-opacity="0.8"
         stroke-linecap="round"
         stroke-linejoin="round"
         stroke-miterlimit="10"
         stroke-width="2.5"
         id="path647" />
      <path
         fill="none"
         stroke="#1565c0"
         paint-order="fill stroke markers"
         d="M 1136.9698,322.07391 V -5"
         stroke-opacity="0.8"
         stroke-linecap="round"
         stroke-linejoin="round"
         stroke-miterlimit="10"
         stroke-width="2.5"
         id="path649" />
      <path
         fill="#616161"
         stroke="none"
         paint-order="stroke fill markers"
         d="m 870.00128,322.07391 -16.74526,5.16321 1.55286,2.56683 -392.034,237.16988 c -0.59067,0.35734 -0.77983,1.12586 -0.42248,1.71653 0.23495,0.38837 0.64766,0.60316 1.0707,0.60316 0.22036,0 0.44353,-0.0583 0.64583,-0.18067 l 392.034,-237.16987 v 0 l 1.55286,2.56683 z"
         fill-opacity="0.8"
         id="path651" />
      <path
         fill="#1565c0"
         stroke="none"
         paint-order="stroke fill markers"
         d="m 468.42191,568.04334 c 0,2.76142 -2.23858,5 -5,5 -2.76143,0 -5,-2.23858 -5,-5 0,-2.76143 2.23857,-5 5,-5 2.76142,0 5,2.23857 5,5 z"
         fill-opacity="1"
         id="path653" />
      <path
         fill="none"
         stroke="#000000"
         paint-order="fill stroke markers"
         d="m 468.42191,568.04334 c 0,2.76142 -2.23858,5 -5,5 -2.76143,0 -5,-2.23858 -5,-5 0,-2.76143 2.23857,-5 5,-5 2.76142,0 5,2.23857 5,5 z"
         stroke-opacity="1"
         stroke-linecap="round"
         stroke-linejoin="round"
         stroke-miterlimit="10"
         id="path655" />
      <text
         fill="#1565c0"
         stroke="none"
         font-family="geogebra-sans-serif, sans-serif"
         font-size="16px"
         font-style="normal"
         font-weight="normal"
         text-decoration="normal"
         x="422"
         y="550"
         text-anchor="start"
         dominant-baseline="alphabetic"
         fill-opacity="1"
         id="text657">Player</text>
      <text
         fill="none"
         stroke="#ffffff"
         font-family="geogebra-sans-serif, sans-serif"
         font-size="16px"
         font-style="normal"
         font-weight="normal"
         text-decoration="normal"
         x="422"
         y="550"
         text-anchor="start"
         dominant-baseline="alphabetic"
         stroke-opacity="1"
         stroke-linejoin="bevel"
         stroke-miterlimit="10"
         stroke-width="3"
         id="text659">Player</text>
      <text
         fill="#1565c0"
         stroke="none"
         font-family="geogebra-sans-serif, sans-serif"
         font-size="16px"
         font-style="normal"
         font-weight="normal"
         text-decoration="normal"
         x="422"
         y="550"
         text-anchor="start"
         dominant-baseline="alphabetic"
         fill-opacity="1"
         id="text661">Player</text>
      <path
         fill="#d32f2f"
         stroke="none"
         paint-order="stroke fill markers"
         d="m 821.60918,354.37467 c 0,2.76142 -2.23857,5 -5,5 -2.76142,0 -5,-2.23858 -5,-5 0,-2.76142 2.23858,-5 5,-5 2.76143,0 5,2.23858 5,5 z"
         fill-opacity="1"
         id="path663" />
      <path
         fill="none"
         stroke="#000000"
         paint-order="fill stroke markers"
         d="m 821.60918,354.37467 c 0,2.76142 -2.23857,5 -5,5 -2.76142,0 -5,-2.23858 -5,-5 0,-2.76142 2.23858,-5 5,-5 2.76143,0 5,2.23858 5,5 z"
         stroke-opacity="1"
         stroke-linecap="round"
         stroke-linejoin="round"
         stroke-miterlimit="10"
         id="path665" />
      <path
         fill="#d32f2f"
         stroke="none"
         paint-order="stroke fill markers"
         d="m 714.81432,418.98265 c 0,2.76142 -2.23857,5 -5,5 -2.76142,0 -5,-2.23858 -5,-5 0,-2.76143 2.23858,-5 5,-5 2.76143,0 5,2.23857 5,5 z"
         fill-opacity="1"
         id="path667" />
      <path
         fill="none"
         stroke="#000000"
         paint-order="fill stroke markers"
         d="m 714.81432,418.98265 c 0,2.76142 -2.23857,5 -5,5 -2.76142,0 -5,-2.23858 -5,-5 0,-2.76143 2.23858,-5 5,-5 2.76143,0 5,2.23857 5,5 z"
         stroke-opacity="1"
         stroke-linecap="round"
         stroke-linejoin="round"
         stroke-miterlimit="10"
         id="path669" />
      <path
         fill="#d32f2f"
         stroke="none"
         paint-order="stroke fill markers"
         d="m 697.5085,429.4522 c 0,2.76143 -2.23858,5 -5,5 -2.76143,0 -5,-2.23857 -5,-5 0,-2.76142 2.23857,-5 5,-5 2.76142,0 5,2.23858 5,5 z"
         fill-opacity="1"
         id="path671" />
      <path
         fill="none"
         stroke="#000000"
         paint-order="fill stroke markers"
         d="m 697.5085,429.4522 c 0,2.76143 -2.23858,5 -5,5 -2.76143,0 -5,-2.23857 -5,-5 0,-2.76142 2.23857,-5 5,-5 2.76142,0 5,2.23858 5,5 z"
         stroke-opacity="1"
         stroke-linecap="round"
         stroke-linejoin="round"
         stroke-miterlimit="10"
         id="path673" />
      <path
         fill="#d32f2f"
         stroke="none"
         paint-order="stroke fill markers"
         d="m 608.04125,483.57744 c 0,2.76143 -2.23857,5 -5,5 -2.76142,0 -5,-2.23857 -5,-5 0,-2.76142 2.23858,-5 5,-5 2.76143,0 5,2.23858 5,5 z"
         fill-opacity="1"
         id="path675" />
      <path
         fill="none"
         stroke="#000000"
         paint-order="fill stroke markers"
         d="m 608.04125,483.57744 c 0,2.76143 -2.23857,5 -5,5 -2.76142,0 -5,-2.23857 -5,-5 0,-2.76142 2.23858,-5 5,-5 2.76143,0 5,2.23858 5,5 z"
         stroke-opacity="1"
         stroke-linecap="round"
         stroke-linejoin="round"
         stroke-miterlimit="10"
         id="path677" />
      <path
         fill="#d32f2f"
         stroke="none"
         paint-order="stroke fill markers"
         d="m 521.8757,535.70525 c 0,2.76142 -2.23857,5 -5,5 -2.76142,0 -5,-2.23858 -5,-5 0,-2.76142 2.23858,-5 5,-5 2.76143,0 5,2.23858 5,5 z"
         fill-opacity="1"
         id="path679" />
      <path
         fill="none"
         stroke="#000000"
         paint-order="fill stroke markers"
         d="m 521.8757,535.70525 c 0,2.76142 -2.23857,5 -5,5 -2.76142,0 -5,-2.23858 -5,-5 0,-2.76142 2.23858,-5 5,-5 2.76143,0 5,2.23858 5,5 z"
         stroke-opacity="1"
         stroke-linecap="round"
         stroke-linejoin="round"
         stroke-miterlimit="10"
         id="path681" />
      <path
         fill="#d32f2f"
         stroke="none"
         paint-order="stroke fill markers"
         d="m 501.25512,548.18014 c 0,2.76143 -2.23858,5 -5,5 -2.76143,0 -5,-2.23857 -5,-5 0,-2.76142 2.23857,-5 5,-5 2.76142,0 5,2.23858 5,5 z"
         fill-opacity="1"
         id="path683" />
      <path
         fill="none"
         stroke="#000000"
         paint-order="fill stroke markers"
         d="m 501.25512,548.18014 c 0,2.76143 -2.23858,5 -5,5 -2.76143,0 -5,-2.23857 -5,-5 0,-2.76142 2.23857,-5 5,-5 2.76142,0 5,2.23858 5,5 z"
         stroke-opacity="1"
         stroke-linecap="round"
         stroke-linejoin="round"
         stroke-miterlimit="10"
         id="path685" />
      <path
         fill="#d32f2f"
         stroke="none"
         paint-order="stroke fill markers"
         d="m 554.95415,515.6937 c 0,2.76142 -2.23858,5 -5,5 -2.76143,0 -5,-2.23858 -5,-5 0,-2.76143 2.23857,-5 5,-5 2.76142,0 5,2.23857 5,5 z"
         fill-opacity="1"
         id="path687" />
      <path
         fill="none"
         stroke="#000000"
         paint-order="fill stroke markers"
         d="m 554.95415,515.6937 c 0,2.76142 -2.23858,5 -5,5 -2.76143,0 -5,-2.23858 -5,-5 0,-2.76143 2.23857,-5 5,-5 2.76142,0 5,2.23857 5,5 z"
         stroke-opacity="1"
         stroke-linecap="round"
         stroke-linejoin="round"
         stroke-miterlimit="10"
         id="path689" />
      <path
         fill="#d32f2f"
         stroke="none"
         paint-order="stroke fill markers"
         d="m 662.01446,450.92513 c 0,2.76142 -2.23858,5 -5,5 -2.76142,0 -5,-2.23858 -5,-5 0,-2.76143 2.23858,-5 5,-5 2.76142,0 5,2.23857 5,5 z"
         fill-opacity="1"
         id="path691" />
      <path
         fill="none"
         stroke="#000000"
         paint-order="fill stroke markers"
         d="m 662.01446,450.92513 c 0,2.76142 -2.23858,5 -5,5 -2.76142,0 -5,-2.23858 -5,-5 0,-2.76143 2.23858,-5 5,-5 2.76142,0 5,2.23857 5,5 z"
         stroke-opacity="1"
         stroke-linecap="round"
         stroke-linejoin="round"
         stroke-miterlimit="10"
         id="path693" />
      <path
         fill="#d32f2f"
         stroke="none"
         paint-order="stroke fill markers"
         d="m 768.48144,386.51551 c 0,2.76142 -2.23858,5 -5,5 -2.76142,0 -5,-2.23858 -5,-5 0,-2.76143 2.23858,-5 5,-5 2.76142,0 5,2.23857 5,5 z"
         fill-opacity="1"
         id="path695" />
      <path
         fill="none"
         stroke="#000000"
         paint-order="fill stroke markers"
         d="m 768.48144,386.51551 c 0,2.76142 -2.23858,5 -5,5 -2.76142,0 -5,-2.23858 -5,-5 0,-2.76143 2.23858,-5 5,-5 2.76142,0 5,2.23857 5,5 z"
         stroke-opacity="1"
         stroke-linecap="round"
         stroke-linejoin="round"
         stroke-miterlimit="10"
         id="path697" />
      <path
         fill="#d32f2f"
         stroke="none"
         paint-order="stroke fill markers"
         d="m 785.56369,376.18121 c 0,2.76142 -2.23857,5 -5,5 -2.76142,0 -5,-2.23858 -5,-5 0,-2.76142 2.23858,-5 5,-5 2.76143,0 5,2.23858 5,5 z"
         fill-opacity="1"
         id="path699" />
      <path
         fill="none"
         stroke="#000000"
         paint-order="fill stroke markers"
         d="m 785.56369,376.18121 c 0,2.76142 -2.23857,5 -5,5 -2.76142,0 -5,-2.23858 -5,-5 0,-2.76142 2.23858,-5 5,-5 2.76143,0 5,2.23858 5,5 z"
         stroke-opacity="1"
         stroke-linecap="round"
         stroke-linejoin="round"
         stroke-miterlimit="10"
         id="path701" />
    </g>
  </g>
</svg>
