<?xml version="1.0" encoding="UTF-8" standalone="no"?>
<svg
   version="1.1"
   width="500"
   height="500"
   id="svg1328"
   xmlns="http://www.w3.org/2000/svg"
   xmlns:svg="http://www.w3.org/2000/svg">
  <defs
     id="defs1292">
    <clipPath
       id="NKDCiwXNxhKE">
      <path
         fill="none"
         stroke="none"
         d="M 0,0 H 1489 V 866 H 0 Z"
         id="path1289" />
    </clipPath>
  </defs>
  <g
     clip-path="url(#NKDCiwXNxhKE)"
     id="g1326"
     transform="translate(-581.593,-304.393)">
    <g
       id="g1324">
      <rect
         fill="#ffffff"
         stroke="none"
         x="0"
         y="0"
         width="1489"
         height="866"
         fill-opacity="1"
         id="rect1294" />
      <path
         fill="#1565c0"
         stroke="none"
         paint-order="stroke fill markers"
         fill-rule="evenodd"
         d="m 244.5,96 v 350 h 700 V 96 Z"
         fill-opacity="0.0980392"
         id="path1296" />
      <path
         fill="none"
         stroke="#1565c0"
         paint-order="fill stroke markers"
         d="M 244.5,96 V 446"
         stroke-opacity="0.698039"
         stroke-linecap="round"
         stroke-linejoin="round"
         stroke-miterlimit="10"
         stroke-width="2.5"
         id="path1298" />
      <path
         fill="none"
         stroke="#1565c0"
         paint-order="fill stroke markers"
         d="m 244.5,446 h 700"
         stroke-opacity="0.698039"
         stroke-linecap="round"
         stroke-linejoin="round"
         stroke-miterlimit="10"
         stroke-width="2.5"
         id="path1300" />
      <path
         fill="none"
         stroke="#1565c0"
         paint-order="fill stroke markers"
         d="M 944.5,446 V 96"
         stroke-opacity="0.698039"
         stroke-linecap="round"
         stroke-linejoin="round"
         stroke-miterlimit="10"
         stroke-width="2.5"
         id="path1302" />
      <path
         fill="none"
         stroke="#1565c0"
         paint-order="fill stroke markers"
         d="m 944.5,96 h -700"
         stroke-opacity="0.698039"
         stroke-linecap="round"
         stroke-linejoin="round"
         stroke-miterlimit="10"
         stroke-width="2.5"
         id="path1304" />
      <path
         fill="none"
         stroke="#000000"
         paint-order="fill stroke markers"
         d="m 694.5,646 150,-150"
         stroke-opacity="0.698039"
         stroke-linecap="round"
         stroke-linejoin="round"
         stroke-miterlimit="10"
         stroke-width="2.5"
         id="path1306" />
      <path
         fill="#000000"
         stroke="none"
         paint-order="stroke fill markers"
         d="m 994.5,346 -15.02602,9.01561 2.12132,2.12132 -137.97918,137.97919 c -0.48816,0.48815 -0.48816,1.27961 0,1.76776 0.24407,0.24408 0.56398,0.36612 0.88388,0.36612 0.3199,0 0.63981,-0.12204 0.88388,-0.36612 l 137.97919,-137.97918 2.12132,2.12132 z"
         fill-opacity="0.698039"
         id="path1308" />
      <path
         fill="#1565c0"
         stroke="none"
         paint-order="stroke fill markers"
         d="m 699.5,646 c 0,2.76142 -2.23858,5 -5,5 -2.76142,0 -5,-2.23858 -5,-5 0,-2.76142 2.23858,-5 5,-5 2.76142,0 5,2.23858 5,5 z"
         fill-opacity="1"
         id="path1310" />
      <path
         fill="none"
         stroke="#000000"
         paint-order="fill stroke markers"
         d="m 699.5,646 c 0,2.76142 -2.23858,5 -5,5 -2.76142,0 -5,-2.23858 -5,-5 0,-2.76142 2.23858,-5 5,-5 2.76142,0 5,2.23858 5,5 z"
         stroke-opacity="1"
         stroke-linecap="round"
         stroke-linejoin="round"
         stroke-miterlimit="10"
         id="path1312" />
      <text
         fill="#1565c0"
         stroke="none"
         font-family="geogebra-sans-serif, sans-serif"
         font-size="16px"
         font-style="normal"
         font-weight="normal"
         text-decoration="normal"
         x="699"
         y="636"
         text-anchor="start"
         dominant-baseline="alphabetic"
         fill-opacity="1"
         id="text1314">Player</text>
      <text
         fill="none"
         stroke="#ffffff"
         font-family="geogebra-sans-serif, sans-serif"
         font-size="16px"
         font-style="normal"
         font-weight="normal"
         text-decoration="normal"
         x="699"
         y="636"
         text-anchor="start"
         dominant-baseline="alphabetic"
         stroke-opacity="1"
         stroke-linejoin="bevel"
         stroke-miterlimit="10"
         stroke-width="3"
         id="text1316">Player</text>
      <text
         fill="#1565c0"
         stroke="none"
         font-family="geogebra-sans-serif, sans-serif"
         font-size="16px"
         font-style="normal"
         font-weight="normal"
         text-decoration="normal"
         x="699"
         y="636"
         text-anchor="start"
         dominant-baseline="alphabetic"
         fill-opacity="1"
         id="text1318">Player</text>
      <path
         fill="#1565c0"
         stroke="none"
         paint-order="stroke fill markers"
         d="m 849.5,496 c 0,2.76142 -2.23858,5 -5,5 -2.76142,0 -5,-2.23858 -5,-5 0,-2.76142 2.23858,-5 5,-5 2.76142,0 5,2.23858 5,5 z"
         fill-opacity="1"
         id="path1320" />
      <path
         fill="none"
         stroke="#000000"
         paint-order="fill stroke markers"
         d="m 849.5,496 c 0,2.76142 -2.23858,5 -5,5 -2.76142,0 -5,-2.23858 -5,-5 0,-2.76142 2.23858,-5 5,-5 2.76142,0 5,2.23858 5,5 z"
         stroke-opacity="1"
         stroke-linecap="round"
         stroke-linejoin="round"
         stroke-miterlimit="10"
         id="path1322" />
    </g>
  </g>
</svg>
