<?xml version="1.0" encoding="UTF-8" standalone="no"?>
<svg
   version="1.1"
   width="800"
   height="640"
   id="svg502"
   xmlns="http://www.w3.org/2000/svg"
   xmlns:svg="http://www.w3.org/2000/svg">
  <defs
     id="defs280">
    <clipPath
       id="NxMKbWMPGPBb">
      <path
         fill="none"
         stroke="none"
         d="M 0,0 H 1808 V 866 H 0 Z"
         id="path277" />
    </clipPath>
  </defs>
  <g
     clip-path="url(#NxMKbWMPGPBb)"
     id="g500">
    <g
       id="g498"
       transform="translate(-454.0597,-113.46782)">
      <rect
         fill="#ffffff"
         stroke="none"
         x="0"
         y="0"
         width="1808"
         height="866"
         fill-opacity="1"
         id="rect282" />
      <path
         fill="#1565c0"
         stroke="none"
         paint-order="stroke fill markers"
         fill-rule="evenodd"
         d="M 790.78157,290.56684 H 1002.1576 V 163.74124 H 790.78157 Z"
         fill-opacity="0.0980392"
         id="path284" />
      <path
         fill="#1565c0"
         stroke="none"
         paint-order="stroke fill markers"
         fill-rule="evenodd"
         d="m 1002.0812,535.93497 126.8256,-76.09536 84.5504,50.73024 v 143.73568 l -84.5504,50.73024 -126.8256,-76.09536 z"
         fill-opacity="0.0980392"
         id="path286" />
      <path
         fill="none"
         stroke="#616161"
         paint-order="fill stroke markers"
         d="M -5,586.49324 H 1813"
         stroke-opacity="0.8"
         stroke-linecap="round"
         stroke-linejoin="round"
         stroke-miterlimit="10"
         stroke-width="2.5"
         id="path288" />
      <path
         fill="none"
         stroke="#1565c0"
         paint-order="fill stroke markers"
         d="M 790.78157,290.56684 H 1002.1576"
         stroke-opacity="0.8"
         stroke-linecap="round"
         stroke-linejoin="round"
         stroke-miterlimit="10"
         stroke-width="2.5"
         id="path290" />
      <path
         fill="none"
         stroke="#1565c0"
         paint-order="fill stroke markers"
         d="M 1002.1576,290.56684 V 163.74124"
         stroke-opacity="0.8"
         stroke-linecap="round"
         stroke-linejoin="round"
         stroke-miterlimit="10"
         stroke-width="2.5"
         id="path292" />
      <path
         fill="none"
         stroke="#1565c0"
         paint-order="fill stroke markers"
         d="M 1002.1576,163.74124 H 790.78157"
         stroke-opacity="0.8"
         stroke-linecap="round"
         stroke-linejoin="round"
         stroke-miterlimit="10"
         stroke-width="2.5"
         id="path294" />
      <path
         fill="none"
         stroke="#1565c0"
         paint-order="fill stroke markers"
         d="m 790.78157,163.74124 v 126.8256"
         stroke-opacity="0.8"
         stroke-linecap="round"
         stroke-linejoin="round"
         stroke-miterlimit="10"
         stroke-width="2.5"
         id="path296" />
      <path
         fill="none"
         stroke="#616161"
         paint-order="fill stroke markers"
         d="M 748.50637,459.66764 V 704.8638"
         stroke-opacity="0.8"
         stroke-linecap="round"
         stroke-linejoin="round"
         stroke-miterlimit="10"
         stroke-width="2.5"
         id="path298" />
      <path
         fill="none"
         stroke="#616161"
         paint-order="fill stroke markers"
         d="m 621.68077,535.763 v 93.00544"
         stroke-opacity="0.8"
         stroke-linecap="round"
         stroke-linejoin="round"
         stroke-miterlimit="10"
         stroke-width="2.5"
         id="path300" />
      <path
         fill="none"
         stroke="#616161"
         paint-order="fill stroke markers"
         d="M 706.23117,485.03276 V 679.49868"
         stroke-opacity="0.8"
         stroke-linecap="round"
         stroke-linejoin="round"
         stroke-miterlimit="10"
         stroke-width="2.5"
         id="path302" />
      <path
         fill="none"
         stroke="#616161"
         paint-order="fill stroke markers"
         d="M 833.05677,510.39788 V 654.13356"
         stroke-opacity="0.8"
         stroke-linecap="round"
         stroke-linejoin="round"
         stroke-miterlimit="10"
         stroke-width="2.5"
         id="path304" />
      <path
         fill="none"
         stroke="#616161"
         paint-order="fill stroke markers"
         d="m 790.91007,485.99127 -0.1285,193.50741"
         stroke-opacity="0.8"
         stroke-linecap="round"
         stroke-linejoin="round"
         stroke-miterlimit="10"
         stroke-width="2.5"
         id="path306" />
      <path
         fill="none"
         stroke="#616161"
         paint-order="fill stroke markers"
         d="M 663.95597,510.39788 V 654.13356"
         stroke-opacity="0.8"
         stroke-linecap="round"
         stroke-linejoin="round"
         stroke-miterlimit="10"
         stroke-width="2.5"
         id="path308" />
      <path
         fill="none"
         stroke="#616161"
         paint-order="fill stroke markers"
         d="m 621.68077,535.763 42.2752,-25.36512"
         stroke-opacity="0.8"
         stroke-linecap="round"
         stroke-linejoin="round"
         stroke-miterlimit="10"
         stroke-width="2.5"
         id="path310" />
      <path
         fill="none"
         stroke="#616161"
         paint-order="fill stroke markers"
         d="m 706.23117,485.03276 -42.2752,25.36512"
         stroke-opacity="0.8"
         stroke-linecap="round"
         stroke-linejoin="round"
         stroke-miterlimit="10"
         stroke-width="2.5"
         id="path312" />
      <path
         fill="none"
         stroke="#616161"
         paint-order="fill stroke markers"
         d="m 706.23117,485.03276 42.2752,-25.36512"
         stroke-opacity="0.8"
         stroke-linecap="round"
         stroke-linejoin="round"
         stroke-miterlimit="10"
         stroke-width="2.5"
         id="path314" />
      <path
         fill="none"
         stroke="#616161"
         paint-order="fill stroke markers"
         d="m 748.50637,459.66764 42.4037,26.32363"
         stroke-opacity="0.8"
         stroke-linecap="round"
         stroke-linejoin="round"
         stroke-miterlimit="10"
         stroke-width="2.5"
         id="path316" />
      <path
         fill="none"
         stroke="#616161"
         paint-order="fill stroke markers"
         d="m 790.91007,485.99127 42.1467,24.40661"
         stroke-opacity="0.8"
         stroke-linecap="round"
         stroke-linejoin="round"
         stroke-miterlimit="10"
         stroke-width="2.5"
         id="path318" />
      <path
         fill="none"
         stroke="#616161"
         paint-order="fill stroke markers"
         d="m 833.05677,654.13356 -42.2752,25.36512"
         stroke-opacity="0.8"
         stroke-linecap="round"
         stroke-linejoin="round"
         stroke-miterlimit="10"
         stroke-width="2.5"
         id="path320" />
      <path
         fill="none"
         stroke="#616161"
         paint-order="fill stroke markers"
         d="m 621.68077,628.76844 42.2752,25.36512"
         stroke-opacity="0.8"
         stroke-linecap="round"
         stroke-linejoin="round"
         stroke-miterlimit="10"
         stroke-width="2.5"
         id="path322" />
      <path
         fill="none"
         stroke="#616161"
         paint-order="fill stroke markers"
         d="m 663.95597,654.13356 42.2752,25.36512"
         stroke-opacity="0.8"
         stroke-linecap="round"
         stroke-linejoin="round"
         stroke-miterlimit="10"
         stroke-width="2.5"
         id="path324" />
      <path
         fill="none"
         stroke="#616161"
         paint-order="fill stroke markers"
         d="m 706.23117,679.49868 42.2752,25.36512"
         stroke-opacity="0.8"
         stroke-linecap="round"
         stroke-linejoin="round"
         stroke-miterlimit="10"
         stroke-width="2.5"
         id="path326" />
      <path
         fill="none"
         stroke="#616161"
         paint-order="fill stroke markers"
         d="m 748.50637,704.8638 42.2752,-25.36512"
         stroke-opacity="0.8"
         stroke-linecap="round"
         stroke-linejoin="round"
         stroke-miterlimit="10"
         stroke-width="2.5"
         id="path328" />
      <path
         fill="none"
         stroke="#1565c0"
         paint-order="fill stroke markers"
         d="m 1002.0812,535.93497 126.8256,-76.09536"
         stroke-opacity="0.8"
         stroke-linecap="round"
         stroke-linejoin="round"
         stroke-miterlimit="10"
         stroke-width="2.5"
         id="path330" />
      <path
         fill="none"
         stroke="#1565c0"
         paint-order="fill stroke markers"
         d="m 1128.9068,459.83961 84.5504,50.73024"
         stroke-opacity="0.8"
         stroke-linecap="round"
         stroke-linejoin="round"
         stroke-miterlimit="10"
         stroke-width="2.5"
         id="path332" />
      <path
         fill="none"
         stroke="#1565c0"
         paint-order="fill stroke markers"
         d="M 1213.4572,510.56985 V 654.30553"
         stroke-opacity="0.8"
         stroke-linecap="round"
         stroke-linejoin="round"
         stroke-miterlimit="10"
         stroke-width="2.5"
         id="path334" />
      <path
         fill="none"
         stroke="#1565c0"
         paint-order="fill stroke markers"
         d="m 1213.4572,654.30553 -84.5504,50.73024"
         stroke-opacity="0.8"
         stroke-linecap="round"
         stroke-linejoin="round"
         stroke-miterlimit="10"
         stroke-width="2.5"
         id="path336" />
      <path
         fill="none"
         stroke="#1565c0"
         paint-order="fill stroke markers"
         d="M 1128.9068,705.03577 1002.0812,628.94041"
         stroke-opacity="0.8"
         stroke-linecap="round"
         stroke-linejoin="round"
         stroke-miterlimit="10"
         stroke-width="2.5"
         id="path338" />
      <path
         fill="none"
         stroke="#1565c0"
         paint-order="fill stroke markers"
         d="M 1002.0812,628.94041 V 535.93497"
         stroke-opacity="0.8"
         stroke-linecap="round"
         stroke-linejoin="round"
         stroke-miterlimit="10"
         stroke-width="2.5"
         id="path340" />
      <path
         fill="#616161"
         stroke="none"
         paint-order="stroke fill markers"
         d="m 1002.1576,206.01644 3.8013,17.10592 2.6833,-1.34164 76.9477,153.89554 c 0.219,0.43801 0.6605,0.69125 1.119,0.69125 0.1879,0 0.3786,-0.0425 0.5581,-0.13223 0.6175,-0.30874 0.8677,-1.05958 0.559,-1.67706 l -76.9478,-153.89553 2.6833,-1.34164 z"
         fill-opacity="0.8"
         id="path342" />
      <path
         fill="#616161"
         stroke="none"
         paint-order="stroke fill markers"
         d="m 1002.1576,248.29164 5.8937,16.50233 2.4961,-1.6641 75.1205,112.68075 c 0.2409,0.3613 0.6373,0.55675 1.0412,0.55675 0.2383,0 0.4791,-0.068 0.6922,-0.21007 0.5745,-0.38294 0.7297,-1.15902 0.3467,-1.73343 l -75.1205,-112.68075 2.4962,-1.6641 z"
         fill-opacity="0.8"
         id="path344" />
      <path
         fill="#616161"
         stroke="none"
         paint-order="stroke fill markers"
         d="m 1002.1576,290.56684 9.0156,15.02602 2.1213,-2.12132 v 0 l 72.5296,72.52958 c 0.2441,0.24408 0.564,0.36612 0.8839,0.36612 0.3199,0 0.6398,-0.12204 0.8839,-0.36612 0.4881,-0.48815 0.4881,-1.27961 0,-1.76776 l -72.5296,-72.52959 v 0 l 2.1213,-2.12132 z"
         fill-opacity="0.8"
         id="path346" />
      <path
         fill="#616161"
         stroke="none"
         paint-order="stroke fill markers"
         d="m 959.88237,290.56684 11.78738,12.96612 1.6641,-2.49615 112.68075,75.12049 c 0.2131,0.14208 0.454,0.21007 0.6922,0.21007 0.404,0 0.8004,-0.19545 1.0412,-0.55675 0.383,-0.57441 0.2278,-1.3505 -0.3467,-1.73344 l -112.6807,-75.1205 1.6641,-2.49615 z"
         fill-opacity="0.8"
         id="path348" />
      <path
         fill="#616161"
         stroke="none"
         paint-order="stroke fill markers"
         d="m 917.60717,290.56684 13.3046,11.40395 1.34164,-2.68328 153.89559,76.94777 c 0.1794,0.0897 0.3701,0.13223 0.558,0.13223 0.4585,0 0.9,-0.25324 1.119,-0.69125 0.3087,-0.61748 0.058,-1.36832 -0.559,-1.67705 l -153.89555,-76.94777 1.34164,-2.68328 z"
         fill-opacity="0.8"
         id="path350" />
      <path
         fill="#616161"
         stroke="none"
         paint-order="stroke fill markers"
         d="m 875.33197,290.56684 14.20569,10.25967 1.11417,-2.78543 195.59187,78.23676 c 0.1523,0.0609 0.3094,0.0897 0.4639,0.0897 0.4961,0 0.9655,-0.29734 1.161,-0.78609 0.2564,-0.64098 -0.055,-1.36844 -0.6964,-1.62483 L 891.58031,295.71989 v 0 l 1.11417,-2.78543 z"
         fill-opacity="0.8"
         id="path352" />
      <path
         fill="#2e7d32"
         stroke="none"
         paint-order="stroke fill markers"
         d="m 875.33352,330.8416 c -0.73364,0 -1.43999,0.40519 -1.79041,1.10601 l -31.54207,63.08415 -3.57771,-1.78885 -5.36656,24.14953 16.09969,-18.78297 -3.57771,-1.78885 31.54207,-63.08415 c 0.49398,-0.98796 0.0935,-2.1893 -0.89442,-2.68328 -0.28714,-0.14357 -0.5923,-0.21159 -0.89288,-0.21159 z"
         fill-opacity="0.8"
         id="path354" />
      <path
         fill="#2e7d32"
         stroke="none"
         paint-order="stroke fill markers"
         d="m 944.33741,495.94284 v 4 h -60.5504 c -1.10457,0 -2,0.89543 -2,2 0,1.10457 0.89543,2 2,2 h 60.5504 v 4 l 24,-6 z"
         fill-opacity="0.8"
         id="path356" />
      <path
         fill="#1565c0"
         stroke="none"
         paint-order="stroke fill markers"
         d="m 1091.708,375.11724 c 0,2.76142 -2.2386,5 -5,5 -2.7615,0 -5,-2.23858 -5,-5 0,-2.76142 2.2385,-5 5,-5 2.7614,0 5,2.23858 5,5 z"
         fill-opacity="1"
         id="path358" />
      <path
         fill="none"
         stroke="#000000"
         paint-order="fill stroke markers"
         d="m 1091.708,375.11724 c 0,2.76142 -2.2386,5 -5,5 -2.7615,0 -5,-2.23858 -5,-5 0,-2.76142 2.2385,-5 5,-5 2.7614,0 5,2.23858 5,5 z"
         stroke-opacity="1"
         stroke-linecap="round"
         stroke-linejoin="round"
         stroke-miterlimit="10"
         id="path360" />
      <text
         fill="#1565c0"
         stroke="none"
         font-family="geogebra-sans-serif, sans-serif"
         font-size="16px"
         font-style="normal"
         font-weight="normal"
         text-decoration="normal"
         x="1091"
         y="365"
         text-anchor="start"
         dominant-baseline="alphabetic"
         fill-opacity="1"
         id="text362">Player</text>
      <text
         fill="none"
         stroke="#ffffff"
         font-family="geogebra-sans-serif, sans-serif"
         font-size="16px"
         font-style="normal"
         font-weight="normal"
         text-decoration="normal"
         x="1091"
         y="365"
         text-anchor="start"
         dominant-baseline="alphabetic"
         stroke-opacity="1"
         stroke-linejoin="bevel"
         stroke-miterlimit="10"
         stroke-width="3"
         id="text364">Player</text>
      <text
         fill="#1565c0"
         stroke="none"
         font-family="geogebra-sans-serif, sans-serif"
         font-size="16px"
         font-style="normal"
         font-weight="normal"
         text-decoration="normal"
         x="1091"
         y="365"
         text-anchor="start"
         dominant-baseline="alphabetic"
         fill-opacity="1"
         id="text366">Player</text>
      <path
         fill="#d32f2f"
         stroke="none"
         paint-order="stroke fill markers"
         d="m 753.50637,459.66764 c 0,2.76142 -2.23858,5 -5,5 -2.76143,0 -5,-2.23858 -5,-5 0,-2.76142 2.23857,-5 5,-5 2.76142,0 5,2.23858 5,5 z"
         fill-opacity="1"
         id="path368" />
      <path
         fill="none"
         stroke="#000000"
         paint-order="fill stroke markers"
         d="m 753.50637,459.66764 c 0,2.76142 -2.23858,5 -5,5 -2.76143,0 -5,-2.23858 -5,-5 0,-2.76142 2.23857,-5 5,-5 2.76142,0 5,2.23858 5,5 z"
         stroke-opacity="1"
         stroke-linecap="round"
         stroke-linejoin="round"
         stroke-miterlimit="10"
         id="path370" />
      <text
         fill="#d32f2f"
         stroke="none"
         font-family="geogebra-sans-serif, sans-serif"
         font-size="16px"
         font-style="normal"
         font-weight="normal"
         text-decoration="normal"
         x="753"
         y="450"
         text-anchor="start"
         dominant-baseline="alphabetic"
         fill-opacity="1"
         id="text372">D</text>
      <text
         fill="none"
         stroke="#ffffff"
         font-family="geogebra-sans-serif, sans-serif"
         font-size="16px"
         font-style="normal"
         font-weight="normal"
         text-decoration="normal"
         x="753"
         y="450"
         text-anchor="start"
         dominant-baseline="alphabetic"
         stroke-opacity="1"
         stroke-linejoin="bevel"
         stroke-miterlimit="10"
         stroke-width="3"
         id="text374">D</text>
      <text
         fill="#d32f2f"
         stroke="none"
         font-family="geogebra-sans-serif, sans-serif"
         font-size="16px"
         font-style="normal"
         font-weight="normal"
         text-decoration="normal"
         x="753"
         y="450"
         text-anchor="start"
         dominant-baseline="alphabetic"
         fill-opacity="1"
         id="text376">D</text>
      <path
         fill="#d32f2f"
         stroke="none"
         paint-order="stroke fill markers"
         d="m 626.68077,535.763 c 0,2.76143 -2.23858,5 -5,5 -2.76143,0 -5,-2.23857 -5,-5 0,-2.76142 2.23857,-5 5,-5 2.76142,0 5,2.23858 5,5 z"
         fill-opacity="1"
         id="path378" />
      <path
         fill="none"
         stroke="#000000"
         paint-order="fill stroke markers"
         d="m 626.68077,535.763 c 0,2.76143 -2.23858,5 -5,5 -2.76143,0 -5,-2.23857 -5,-5 0,-2.76142 2.23857,-5 5,-5 2.76142,0 5,2.23858 5,5 z"
         stroke-opacity="1"
         stroke-linecap="round"
         stroke-linejoin="round"
         stroke-miterlimit="10"
         id="path380" />
      <text
         fill="#d32f2f"
         stroke="none"
         font-family="geogebra-sans-serif, sans-serif"
         font-size="16px"
         font-style="normal"
         font-weight="normal"
         text-decoration="normal"
         x="626"
         y="526"
         text-anchor="start"
         dominant-baseline="alphabetic"
         fill-opacity="1"
         id="text382">A</text>
      <text
         fill="none"
         stroke="#ffffff"
         font-family="geogebra-sans-serif, sans-serif"
         font-size="16px"
         font-style="normal"
         font-weight="normal"
         text-decoration="normal"
         x="626"
         y="526"
         text-anchor="start"
         dominant-baseline="alphabetic"
         stroke-opacity="1"
         stroke-linejoin="bevel"
         stroke-miterlimit="10"
         stroke-width="3"
         id="text384">A</text>
      <text
         fill="#d32f2f"
         stroke="none"
         font-family="geogebra-sans-serif, sans-serif"
         font-size="16px"
         font-style="normal"
         font-weight="normal"
         text-decoration="normal"
         x="626"
         y="526"
         text-anchor="start"
         dominant-baseline="alphabetic"
         fill-opacity="1"
         id="text386">A</text>
      <path
         fill="#d32f2f"
         stroke="none"
         paint-order="stroke fill markers"
         d="m 711.23117,485.03276 c 0,2.76142 -2.23858,5 -5,5 -2.76143,0 -5,-2.23858 -5,-5 0,-2.76142 2.23857,-5 5,-5 2.76142,0 5,2.23858 5,5 z"
         fill-opacity="1"
         id="path388" />
      <path
         fill="none"
         stroke="#000000"
         paint-order="fill stroke markers"
         d="m 711.23117,485.03276 c 0,2.76142 -2.23858,5 -5,5 -2.76143,0 -5,-2.23858 -5,-5 0,-2.76142 2.23857,-5 5,-5 2.76142,0 5,2.23858 5,5 z"
         stroke-opacity="1"
         stroke-linecap="round"
         stroke-linejoin="round"
         stroke-miterlimit="10"
         id="path390" />
      <text
         fill="#d32f2f"
         stroke="none"
         font-family="geogebra-sans-serif, sans-serif"
         font-size="16px"
         font-style="normal"
         font-weight="normal"
         text-decoration="normal"
         x="710"
         y="475"
         text-anchor="start"
         dominant-baseline="alphabetic"
         fill-opacity="1"
         id="text392">C</text>
      <text
         fill="none"
         stroke="#ffffff"
         font-family="geogebra-sans-serif, sans-serif"
         font-size="16px"
         font-style="normal"
         font-weight="normal"
         text-decoration="normal"
         x="710"
         y="475"
         text-anchor="start"
         dominant-baseline="alphabetic"
         stroke-opacity="1"
         stroke-linejoin="bevel"
         stroke-miterlimit="10"
         stroke-width="3"
         id="text394">C</text>
      <text
         fill="#d32f2f"
         stroke="none"
         font-family="geogebra-sans-serif, sans-serif"
         font-size="16px"
         font-style="normal"
         font-weight="normal"
         text-decoration="normal"
         x="710"
         y="475"
         text-anchor="start"
         dominant-baseline="alphabetic"
         fill-opacity="1"
         id="text396">C</text>
      <path
         fill="#d32f2f"
         stroke="none"
         paint-order="stroke fill markers"
         d="m 838.05677,510.39788 c 0,2.76143 -2.23858,5 -5,5 -2.76142,0 -5,-2.23857 -5,-5 0,-2.76142 2.23858,-5 5,-5 2.76142,0 5,2.23858 5,5 z"
         fill-opacity="1"
         id="path398" />
      <path
         fill="none"
         stroke="#000000"
         paint-order="fill stroke markers"
         d="m 838.05677,510.39788 c 0,2.76143 -2.23858,5 -5,5 -2.76142,0 -5,-2.23857 -5,-5 0,-2.76142 2.23858,-5 5,-5 2.76142,0 5,2.23858 5,5 z"
         stroke-opacity="1"
         stroke-linecap="round"
         stroke-linejoin="round"
         stroke-miterlimit="10"
         id="path400" />
      <text
         fill="#d32f2f"
         stroke="none"
         font-family="geogebra-sans-serif, sans-serif"
         font-size="16px"
         font-style="normal"
         font-weight="normal"
         text-decoration="normal"
         x="837"
         y="500"
         text-anchor="start"
         dominant-baseline="alphabetic"
         fill-opacity="1"
         id="text402">F</text>
      <text
         fill="none"
         stroke="#ffffff"
         font-family="geogebra-sans-serif, sans-serif"
         font-size="16px"
         font-style="normal"
         font-weight="normal"
         text-decoration="normal"
         x="837"
         y="500"
         text-anchor="start"
         dominant-baseline="alphabetic"
         stroke-opacity="1"
         stroke-linejoin="bevel"
         stroke-miterlimit="10"
         stroke-width="3"
         id="text404">F</text>
      <text
         fill="#d32f2f"
         stroke="none"
         font-family="geogebra-sans-serif, sans-serif"
         font-size="16px"
         font-style="normal"
         font-weight="normal"
         text-decoration="normal"
         x="837"
         y="500"
         text-anchor="start"
         dominant-baseline="alphabetic"
         fill-opacity="1"
         id="text406">F</text>
      <path
         fill="#d32f2f"
         stroke="none"
         paint-order="stroke fill markers"
         d="m 795.91007,485.99127 c 0,2.76143 -2.23857,5 -5,5 -2.76142,0 -5,-2.23857 -5,-5 0,-2.76142 2.23858,-5 5,-5 2.76143,0 5,2.23858 5,5 z"
         fill-opacity="1"
         id="path408" />
      <path
         fill="none"
         stroke="#000000"
         paint-order="fill stroke markers"
         d="m 795.91007,485.99127 c 0,2.76143 -2.23857,5 -5,5 -2.76142,0 -5,-2.23857 -5,-5 0,-2.76142 2.23858,-5 5,-5 2.76143,0 5,2.23858 5,5 z"
         stroke-opacity="1"
         stroke-linecap="round"
         stroke-linejoin="round"
         stroke-miterlimit="10"
         id="path410" />
      <text
         fill="#d32f2f"
         stroke="none"
         font-family="geogebra-sans-serif, sans-serif"
         font-size="16px"
         font-style="normal"
         font-weight="normal"
         text-decoration="normal"
         x="795"
         y="476"
         text-anchor="start"
         dominant-baseline="alphabetic"
         fill-opacity="1"
         id="text412">E</text>
      <text
         fill="none"
         stroke="#ffffff"
         font-family="geogebra-sans-serif, sans-serif"
         font-size="16px"
         font-style="normal"
         font-weight="normal"
         text-decoration="normal"
         x="795"
         y="476"
         text-anchor="start"
         dominant-baseline="alphabetic"
         stroke-opacity="1"
         stroke-linejoin="bevel"
         stroke-miterlimit="10"
         stroke-width="3"
         id="text414">E</text>
      <text
         fill="#d32f2f"
         stroke="none"
         font-family="geogebra-sans-serif, sans-serif"
         font-size="16px"
         font-style="normal"
         font-weight="normal"
         text-decoration="normal"
         x="795"
         y="476"
         text-anchor="start"
         dominant-baseline="alphabetic"
         fill-opacity="1"
         id="text416">E</text>
      <path
         fill="#d32f2f"
         stroke="none"
         paint-order="stroke fill markers"
         d="m 668.95597,510.39788 c 0,2.76143 -2.23858,5 -5,5 -2.76143,0 -5,-2.23857 -5,-5 0,-2.76142 2.23857,-5 5,-5 2.76142,0 5,2.23858 5,5 z"
         fill-opacity="1"
         id="path418" />
      <path
         fill="none"
         stroke="#000000"
         paint-order="fill stroke markers"
         d="m 668.95597,510.39788 c 0,2.76143 -2.23858,5 -5,5 -2.76143,0 -5,-2.23857 -5,-5 0,-2.76142 2.23857,-5 5,-5 2.76142,0 5,2.23858 5,5 z"
         stroke-opacity="1"
         stroke-linecap="round"
         stroke-linejoin="round"
         stroke-miterlimit="10"
         id="path420" />
      <text
         fill="#d32f2f"
         stroke="none"
         font-family="geogebra-sans-serif, sans-serif"
         font-size="16px"
         font-style="normal"
         font-weight="normal"
         text-decoration="normal"
         x="668"
         y="500"
         text-anchor="start"
         dominant-baseline="alphabetic"
         fill-opacity="1"
         id="text422">B</text>
      <text
         fill="none"
         stroke="#ffffff"
         font-family="geogebra-sans-serif, sans-serif"
         font-size="16px"
         font-style="normal"
         font-weight="normal"
         text-decoration="normal"
         x="668"
         y="500"
         text-anchor="start"
         dominant-baseline="alphabetic"
         stroke-opacity="1"
         stroke-linejoin="bevel"
         stroke-miterlimit="10"
         stroke-width="3"
         id="text424">B</text>
      <text
         fill="#d32f2f"
         stroke="none"
         font-family="geogebra-sans-serif, sans-serif"
         font-size="16px"
         font-style="normal"
         font-weight="normal"
         text-decoration="normal"
         x="668"
         y="500"
         text-anchor="start"
         dominant-baseline="alphabetic"
         fill-opacity="1"
         id="text426">B</text>
      <path
         fill="#1565c0"
         stroke="none"
         paint-order="stroke fill markers"
         d="m 499.85517,586.49324 c 0,2.76143 -2.23858,5 -5,5 -2.76143,0 -5,-2.23857 -5,-5 0,-2.76142 2.23857,-5 5,-5 2.76142,0 5,2.23858 5,5 z"
         fill-opacity="1"
         id="path428" />
      <path
         fill="none"
         stroke="#000000"
         paint-order="fill stroke markers"
         d="m 499.85517,586.49324 c 0,2.76143 -2.23858,5 -5,5 -2.76143,0 -5,-2.23857 -5,-5 0,-2.76142 2.23857,-5 5,-5 2.76142,0 5,2.23858 5,5 z"
         stroke-opacity="1"
         stroke-linecap="round"
         stroke-linejoin="round"
         stroke-miterlimit="10"
         id="path430" />
      <text
         fill="#1565c0"
         stroke="none"
         font-family="geogebra-sans-serif, sans-serif"
         font-size="16px"
         font-style="normal"
         font-weight="normal"
         text-decoration="normal"
         x="499"
         y="576"
         text-anchor="start"
         dominant-baseline="alphabetic"
         fill-opacity="1"
         id="text432">Horizon</text>
      <text
         fill="none"
         stroke="#ffffff"
         font-family="geogebra-sans-serif, sans-serif"
         font-size="16px"
         font-style="normal"
         font-weight="normal"
         text-decoration="normal"
         x="499"
         y="576"
         text-anchor="start"
         dominant-baseline="alphabetic"
         stroke-opacity="1"
         stroke-linejoin="bevel"
         stroke-miterlimit="10"
         stroke-width="3"
         id="text434">Horizon</text>
      <text
         fill="#1565c0"
         stroke="none"
         font-family="geogebra-sans-serif, sans-serif"
         font-size="16px"
         font-style="normal"
         font-weight="normal"
         text-decoration="normal"
         x="499"
         y="576"
         text-anchor="start"
         dominant-baseline="alphabetic"
         fill-opacity="1"
         id="text436">Horizon</text>
      <path
         fill="#d32f2f"
         stroke="none"
         paint-order="stroke fill markers"
         d="m 1006.1576,290.56684 c 0,2.20914 -1.7909,4 -4,4 -2.20917,0 -4.00003,-1.79086 -4.00003,-4 0,-2.20914 1.79086,-4 4.00003,-4 2.2091,0 4,1.79086 4,4 z"
         fill-opacity="1"
         id="path438" />
      <path
         fill="none"
         stroke="#000000"
         paint-order="fill stroke markers"
         d="m 1006.1576,290.56684 c 0,2.20914 -1.7909,4 -4,4 -2.20917,0 -4.00003,-1.79086 -4.00003,-4 0,-2.20914 1.79086,-4 4.00003,-4 2.2091,0 4,1.79086 4,4 z"
         stroke-opacity="1"
         stroke-linecap="round"
         stroke-linejoin="round"
         stroke-miterlimit="10"
         id="path440" />
      <text
         fill="#d32f2f"
         stroke="none"
         font-family="geogebra-sans-serif, sans-serif"
         font-size="16px"
         font-style="normal"
         font-weight="normal"
         text-decoration="normal"
         x="1006"
         y="283"
         text-anchor="start"
         dominant-baseline="alphabetic"
         fill-opacity="1"
         id="text442">D</text>
      <text
         fill="none"
         stroke="#ffffff"
         font-family="geogebra-sans-serif, sans-serif"
         font-size="16px"
         font-style="normal"
         font-weight="normal"
         text-decoration="normal"
         x="1006"
         y="283"
         text-anchor="start"
         dominant-baseline="alphabetic"
         stroke-opacity="1"
         stroke-linejoin="bevel"
         stroke-miterlimit="10"
         stroke-width="3"
         id="text444">D</text>
      <text
         fill="#d32f2f"
         stroke="none"
         font-family="geogebra-sans-serif, sans-serif"
         font-size="16px"
         font-style="normal"
         font-weight="normal"
         text-decoration="normal"
         x="1006"
         y="283"
         text-anchor="start"
         dominant-baseline="alphabetic"
         fill-opacity="1"
         id="text446">D</text>
      <path
         fill="#d32f2f"
         stroke="none"
         paint-order="stroke fill markers"
         d="m 964.88237,290.56684 c 0,2.76142 -2.23858,5 -5,5 -2.76142,0 -5,-2.23858 -5,-5 0,-2.76142 2.23858,-5 5,-5 2.76142,0 5,2.23858 5,5 z"
         fill-opacity="1"
         id="path448" />
      <path
         fill="none"
         stroke="#000000"
         paint-order="fill stroke markers"
         d="m 964.88237,290.56684 c 0,2.76142 -2.23858,5 -5,5 -2.76142,0 -5,-2.23858 -5,-5 0,-2.76142 2.23858,-5 5,-5 2.76142,0 5,2.23858 5,5 z"
         stroke-opacity="1"
         stroke-linecap="round"
         stroke-linejoin="round"
         stroke-miterlimit="10"
         id="path450" />
      <text
         fill="#d32f2f"
         stroke="none"
         font-family="geogebra-sans-serif, sans-serif"
         font-size="16px"
         font-style="normal"
         font-weight="normal"
         text-decoration="normal"
         x="964"
         y="281"
         text-anchor="start"
         dominant-baseline="alphabetic"
         fill-opacity="1"
         id="text452">C</text>
      <text
         fill="none"
         stroke="#ffffff"
         font-family="geogebra-sans-serif, sans-serif"
         font-size="16px"
         font-style="normal"
         font-weight="normal"
         text-decoration="normal"
         x="964"
         y="281"
         text-anchor="start"
         dominant-baseline="alphabetic"
         stroke-opacity="1"
         stroke-linejoin="bevel"
         stroke-miterlimit="10"
         stroke-width="3"
         id="text454">C</text>
      <text
         fill="#d32f2f"
         stroke="none"
         font-family="geogebra-sans-serif, sans-serif"
         font-size="16px"
         font-style="normal"
         font-weight="normal"
         text-decoration="normal"
         x="964"
         y="281"
         text-anchor="start"
         dominant-baseline="alphabetic"
         fill-opacity="1"
         id="text456">C</text>
      <path
         fill="#d32f2f"
         stroke="none"
         paint-order="stroke fill markers"
         d="m 922.60717,290.56684 c 0,2.76142 -2.23858,5 -5,5 -2.76142,0 -5,-2.23858 -5,-5 0,-2.76142 2.23858,-5 5,-5 2.76142,0 5,2.23858 5,5 z"
         fill-opacity="1"
         id="path458" />
      <path
         fill="none"
         stroke="#000000"
         paint-order="fill stroke markers"
         d="m 922.60717,290.56684 c 0,2.76142 -2.23858,5 -5,5 -2.76142,0 -5,-2.23858 -5,-5 0,-2.76142 2.23858,-5 5,-5 2.76142,0 5,2.23858 5,5 z"
         stroke-opacity="1"
         stroke-linecap="round"
         stroke-linejoin="round"
         stroke-miterlimit="10"
         id="path460" />
      <text
         fill="#d32f2f"
         stroke="none"
         font-family="geogebra-sans-serif, sans-serif"
         font-size="16px"
         font-style="normal"
         font-weight="normal"
         text-decoration="normal"
         x="922"
         y="281"
         text-anchor="start"
         dominant-baseline="alphabetic"
         fill-opacity="1"
         id="text462">B</text>
      <text
         fill="none"
         stroke="#ffffff"
         font-family="geogebra-sans-serif, sans-serif"
         font-size="16px"
         font-style="normal"
         font-weight="normal"
         text-decoration="normal"
         x="922"
         y="281"
         text-anchor="start"
         dominant-baseline="alphabetic"
         stroke-opacity="1"
         stroke-linejoin="bevel"
         stroke-miterlimit="10"
         stroke-width="3"
         id="text464">B</text>
      <text
         fill="#d32f2f"
         stroke="none"
         font-family="geogebra-sans-serif, sans-serif"
         font-size="16px"
         font-style="normal"
         font-weight="normal"
         text-decoration="normal"
         x="922"
         y="281"
         text-anchor="start"
         dominant-baseline="alphabetic"
         fill-opacity="1"
         id="text466">B</text>
      <path
         fill="#d32f2f"
         stroke="none"
         paint-order="stroke fill markers"
         d="m 880.33197,290.56684 c 0,2.76142 -2.23858,5 -5,5 -2.76142,0 -5,-2.23858 -5,-5 0,-2.76142 2.23858,-5 5,-5 2.76142,0 5,2.23858 5,5 z"
         fill-opacity="1"
         id="path468" />
      <path
         fill="none"
         stroke="#000000"
         paint-order="fill stroke markers"
         d="m 880.33197,290.56684 c 0,2.76142 -2.23858,5 -5,5 -2.76142,0 -5,-2.23858 -5,-5 0,-2.76142 2.23858,-5 5,-5 2.76142,0 5,2.23858 5,5 z"
         stroke-opacity="1"
         stroke-linecap="round"
         stroke-linejoin="round"
         stroke-miterlimit="10"
         id="path470" />
      <text
         fill="#d32f2f"
         stroke="none"
         font-family="geogebra-sans-serif, sans-serif"
         font-size="16px"
         font-style="normal"
         font-weight="normal"
         text-decoration="normal"
         x="879"
         y="281"
         text-anchor="start"
         dominant-baseline="alphabetic"
         fill-opacity="1"
         id="text472">A</text>
      <text
         fill="none"
         stroke="#ffffff"
         font-family="geogebra-sans-serif, sans-serif"
         font-size="16px"
         font-style="normal"
         font-weight="normal"
         text-decoration="normal"
         x="879"
         y="281"
         text-anchor="start"
         dominant-baseline="alphabetic"
         stroke-opacity="1"
         stroke-linejoin="bevel"
         stroke-miterlimit="10"
         stroke-width="3"
         id="text474">A</text>
      <text
         fill="#d32f2f"
         stroke="none"
         font-family="geogebra-sans-serif, sans-serif"
         font-size="16px"
         font-style="normal"
         font-weight="normal"
         text-decoration="normal"
         x="879"
         y="281"
         text-anchor="start"
         dominant-baseline="alphabetic"
         fill-opacity="1"
         id="text476">A</text>
      <path
         fill="#d32f2f"
         stroke="none"
         paint-order="stroke fill markers"
         d="m 1007.1576,206.01644 c 0,2.76142 -2.2386,5 -5,5 -2.76145,0 -5.00003,-2.23858 -5.00003,-5 0,-2.76142 2.23858,-5 5.00003,-5 2.7614,0 5,2.23858 5,5 z"
         fill-opacity="1"
         id="path478" />
      <path
         fill="none"
         stroke="#000000"
         paint-order="fill stroke markers"
         d="m 1007.1576,206.01644 c 0,2.76142 -2.2386,5 -5,5 -2.76145,0 -5.00003,-2.23858 -5.00003,-5 0,-2.76142 2.23858,-5 5.00003,-5 2.7614,0 5,2.23858 5,5 z"
         stroke-opacity="1"
         stroke-linecap="round"
         stroke-linejoin="round"
         stroke-miterlimit="10"
         id="path480" />
      <text
         fill="#d32f2f"
         stroke="none"
         font-family="geogebra-sans-serif, sans-serif"
         font-size="16px"
         font-style="normal"
         font-weight="normal"
         text-decoration="normal"
         x="1006"
         y="196"
         text-anchor="start"
         dominant-baseline="alphabetic"
         fill-opacity="1"
         id="text482">F</text>
      <text
         fill="none"
         stroke="#ffffff"
         font-family="geogebra-sans-serif, sans-serif"
         font-size="16px"
         font-style="normal"
         font-weight="normal"
         text-decoration="normal"
         x="1006"
         y="196"
         text-anchor="start"
         dominant-baseline="alphabetic"
         stroke-opacity="1"
         stroke-linejoin="bevel"
         stroke-miterlimit="10"
         stroke-width="3"
         id="text484">F</text>
      <text
         fill="#d32f2f"
         stroke="none"
         font-family="geogebra-sans-serif, sans-serif"
         font-size="16px"
         font-style="normal"
         font-weight="normal"
         text-decoration="normal"
         x="1006"
         y="196"
         text-anchor="start"
         dominant-baseline="alphabetic"
         fill-opacity="1"
         id="text486">F</text>
      <path
         fill="#d32f2f"
         stroke="none"
         paint-order="stroke fill markers"
         d="m 1007.1576,248.29164 c 0,2.76142 -2.2386,5 -5,5 -2.76145,0 -5.00003,-2.23858 -5.00003,-5 0,-2.76142 2.23858,-5 5.00003,-5 2.7614,0 5,2.23858 5,5 z"
         fill-opacity="1"
         id="path488" />
      <path
         fill="none"
         stroke="#000000"
         paint-order="fill stroke markers"
         d="m 1007.1576,248.29164 c 0,2.76142 -2.2386,5 -5,5 -2.76145,0 -5.00003,-2.23858 -5.00003,-5 0,-2.76142 2.23858,-5 5.00003,-5 2.7614,0 5,2.23858 5,5 z"
         stroke-opacity="1"
         stroke-linecap="round"
         stroke-linejoin="round"
         stroke-miterlimit="10"
         id="path490" />
      <text
         fill="#d32f2f"
         stroke="none"
         font-family="geogebra-sans-serif, sans-serif"
         font-size="16px"
         font-style="normal"
         font-weight="normal"
         text-decoration="normal"
         x="1006"
         y="238"
         text-anchor="start"
         dominant-baseline="alphabetic"
         fill-opacity="1"
         id="text492">E</text>
      <text
         fill="none"
         stroke="#ffffff"
         font-family="geogebra-sans-serif, sans-serif"
         font-size="16px"
         font-style="normal"
         font-weight="normal"
         text-decoration="normal"
         x="1006"
         y="238"
         text-anchor="start"
         dominant-baseline="alphabetic"
         stroke-opacity="1"
         stroke-linejoin="bevel"
         stroke-miterlimit="10"
         stroke-width="3"
         id="text494">E</text>
      <text
         fill="#d32f2f"
         stroke="none"
         font-family="geogebra-sans-serif, sans-serif"
         font-size="16px"
         font-style="normal"
         font-weight="normal"
         text-decoration="normal"
         x="1006"
         y="238"
         text-anchor="start"
         dominant-baseline="alphabetic"
         fill-opacity="1"
         id="text496">E</text>
    </g>
  </g>
</svg>
