<?xml version="1.0" encoding="UTF-8" standalone="no"?>
<svg
   version="1.1"
   width="500"
   height="500"
   id="svg2284"
   xmlns="http://www.w3.org/2000/svg"
   xmlns:svg="http://www.w3.org/2000/svg">
  <defs
     id="defs2226">
    <clipPath
       id="RayWTJkrqOwt">
      <path
         fill="none"
         stroke="none"
         d="M 0,0 H 1489 V 866 H 0 Z"
         id="path2223" />
    </clipPath>
  </defs>
  <g
     clip-path="url(#RayWTJkrqOwt)"
     id="g2282"
     transform="translate(-581.593,-304.393)">
    <g
       id="g2280">
      <rect
         fill="#ffffff"
         stroke="none"
         x="0"
         y="0"
         width="1489"
         height="866"
         fill-opacity="1"
         id="rect2228" />
      <path
         fill="#1565c0"
         stroke="none"
         paint-order="stroke fill markers"
         fill-rule="evenodd"
         d="m 244.5,133 v 350 h 700 V 133 Z"
         fill-opacity="0.0980392"
         id="path2230" />
      <path
         fill="none"
         stroke="#000000"
         paint-order="fill stroke markers"
         d="M -5,483 H 1494"
         stroke-opacity="0.698039"
         stroke-linecap="round"
         stroke-linejoin="round"
         stroke-miterlimit="10"
         stroke-width="5"
         id="path2232" />
      <path
         fill="none"
         stroke="#000000"
         paint-order="fill stroke markers"
         d="M 944.5,871 V -5"
         stroke-opacity="0.698039"
         stroke-linecap="round"
         stroke-linejoin="round"
         stroke-miterlimit="10"
         stroke-width="5"
         id="path2234" />
      <path
         fill="none"
         stroke="#000000"
         paint-order="fill stroke markers"
         d="M 244.5,871 V -5"
         stroke-opacity="0.698039"
         stroke-linecap="round"
         stroke-linejoin="round"
         stroke-miterlimit="10"
         stroke-width="5"
         id="path2236" />
      <path
         fill="none"
         stroke="#000000"
         paint-order="fill stroke markers"
         d="M -5,133 H 1494"
         stroke-opacity="0.698039"
         stroke-linecap="round"
         stroke-linejoin="round"
         stroke-miterlimit="10"
         stroke-width="5"
         id="path2238" />
      <path
         fill="none"
         stroke="#1565c0"
         paint-order="fill stroke markers"
         d="M 244.5,133 V 483"
         stroke-opacity="0.698039"
         stroke-linecap="round"
         stroke-linejoin="round"
         stroke-miterlimit="10"
         stroke-width="2.5"
         id="path2240" />
      <path
         fill="none"
         stroke="#1565c0"
         paint-order="fill stroke markers"
         d="m 244.5,483 h 700"
         stroke-opacity="0.698039"
         stroke-linecap="round"
         stroke-linejoin="round"
         stroke-miterlimit="10"
         stroke-width="2.5"
         id="path2242" />
      <path
         fill="none"
         stroke="#1565c0"
         paint-order="fill stroke markers"
         d="M 944.5,483 V 133"
         stroke-opacity="0.698039"
         stroke-linecap="round"
         stroke-linejoin="round"
         stroke-miterlimit="10"
         stroke-width="2.5"
         id="path2244" />
      <path
         fill="none"
         stroke="#1565c0"
         paint-order="fill stroke markers"
         d="m 944.5,133 h -700"
         stroke-opacity="0.698039"
         stroke-linecap="round"
         stroke-linejoin="round"
         stroke-miterlimit="10"
         stroke-width="2.5"
         id="path2246" />
      <path
         fill="none"
         stroke="#000000"
         paint-order="fill stroke markers"
         d="M 694.5,683 1377.5,0"
         stroke-opacity="0.698039"
         stroke-linecap="round"
         stroke-linejoin="round"
         stroke-miterlimit="10"
         stroke-width="2.5"
         id="path2248" />
      <path
         fill="#1565c0"
         stroke="none"
         paint-order="stroke fill markers"
         d="m 699.5,683 c 0,2.76142 -2.23858,5 -5,5 -2.76142,0 -5,-2.23858 -5,-5 0,-2.76142 2.23858,-5 5,-5 2.76142,0 5,2.23858 5,5 z"
         fill-opacity="1"
         id="path2250" />
      <path
         fill="none"
         stroke="#000000"
         paint-order="fill stroke markers"
         d="m 699.5,683 c 0,2.76142 -2.23858,5 -5,5 -2.76142,0 -5,-2.23858 -5,-5 0,-2.76142 2.23858,-5 5,-5 2.76142,0 5,2.23858 5,5 z"
         stroke-opacity="1"
         stroke-linecap="round"
         stroke-linejoin="round"
         stroke-miterlimit="10"
         id="path2252" />
      <text
         fill="#1565c0"
         stroke="none"
         font-family="geogebra-sans-serif, sans-serif"
         font-size="16px"
         font-style="normal"
         font-weight="normal"
         text-decoration="normal"
         x="699"
         y="673"
         text-anchor="start"
         dominant-baseline="alphabetic"
         fill-opacity="1"
         id="text2254">Player</text>
      <text
         fill="none"
         stroke="#ffffff"
         font-family="geogebra-sans-serif, sans-serif"
         font-size="16px"
         font-style="normal"
         font-weight="normal"
         text-decoration="normal"
         x="699"
         y="673"
         text-anchor="start"
         dominant-baseline="alphabetic"
         stroke-opacity="1"
         stroke-linejoin="bevel"
         stroke-miterlimit="10"
         stroke-width="3"
         id="text2256">Player</text>
      <text
         fill="#1565c0"
         stroke="none"
         font-family="geogebra-sans-serif, sans-serif"
         font-size="16px"
         font-style="normal"
         font-weight="normal"
         text-decoration="normal"
         x="699"
         y="673"
         text-anchor="start"
         dominant-baseline="alphabetic"
         fill-opacity="1"
         id="text2258">Player</text>
      <path
         fill="#d32f2f"
         stroke="none"
         paint-order="stroke fill markers"
         d="m 899.5,483 c 0,2.76142 -2.23858,5 -5,5 -2.76142,0 -5,-2.23858 -5,-5 0,-2.76142 2.23858,-5 5,-5 2.76142,0 5,2.23858 5,5 z"
         fill-opacity="1"
         id="path2260" />
      <path
         fill="none"
         stroke="#000000"
         paint-order="fill stroke markers"
         d="m 899.5,483 c 0,2.76142 -2.23858,5 -5,5 -2.76142,0 -5,-2.23858 -5,-5 0,-2.76142 2.23858,-5 5,-5 2.76142,0 5,2.23858 5,5 z"
         stroke-opacity="1"
         stroke-linecap="round"
         stroke-linejoin="round"
         stroke-miterlimit="10"
         id="path2262" />
      <path
         fill="#d32f2f"
         stroke="none"
         paint-order="stroke fill markers"
         d="m 949.5,433 c 0,2.76142 -2.23858,5 -5,5 -2.76142,0 -5,-2.23858 -5,-5 0,-2.76142 2.23858,-5 5,-5 2.76142,0 5,2.23858 5,5 z"
         fill-opacity="1"
         id="path2270" />
      <path
         fill="none"
         stroke="#000000"
         paint-order="fill stroke markers"
         d="m 949.5,433 c 0,2.76142 -2.23858,5 -5,5 -2.76142,0 -5,-2.23858 -5,-5 0,-2.76142 2.23858,-5 5,-5 2.76142,0 5,2.23858 5,5 z"
         stroke-opacity="1"
         stroke-linecap="round"
         stroke-linejoin="round"
         stroke-miterlimit="10"
         id="path2272" />
    </g>
  </g>
</svg>
