<?xml version="1.0" encoding="UTF-8" standalone="no"?>
<svg
   version="1.1"
   width="500"
   height="500"
   id="svg2978"
   xmlns="http://www.w3.org/2000/svg"
   xmlns:svg="http://www.w3.org/2000/svg">
  <defs
     id="defs2948">
    <clipPath
       id="cHKvAMHkvKyr">
      <path
         fill="none"
         stroke="none"
         d="M 0,0 H 1489 V 866 H 0 Z"
         id="path2945" />
    </clipPath>
  </defs>
  <g
     clip-path="url(#cHKvAMHkvKyr)"
     id="g2976"
     transform="translate(-581.593,-304.393)">
    <g
       id="g2974">
      <rect
         fill="#ffffff"
         stroke="none"
         x="0"
         y="0"
         width="1489"
         height="866"
         fill-opacity="1"
         id="rect2950" />
      <path
         fill="#1565c0"
         stroke="none"
         paint-order="stroke fill markers"
         fill-rule="evenodd"
         d="m 244.5,133 v 350 h 700 V 133 Z"
         fill-opacity="0.0980392"
         id="path2952" />
      <path
         fill="none"
         stroke="#1565c0"
         paint-order="fill stroke markers"
         d="M 244.5,133 V 483"
         stroke-opacity="0.698039"
         stroke-linecap="round"
         stroke-linejoin="round"
         stroke-miterlimit="10"
         stroke-width="2.5"
         id="path2954" />
      <path
         fill="none"
         stroke="#1565c0"
         paint-order="fill stroke markers"
         d="m 244.5,483 h 700"
         stroke-opacity="0.698039"
         stroke-linecap="round"
         stroke-linejoin="round"
         stroke-miterlimit="10"
         stroke-width="2.5"
         id="path2956" />
      <path
         fill="none"
         stroke="#1565c0"
         paint-order="fill stroke markers"
         d="M 944.5,483 V 133"
         stroke-opacity="0.698039"
         stroke-linecap="round"
         stroke-linejoin="round"
         stroke-miterlimit="10"
         stroke-width="2.5"
         id="path2958" />
      <path
         fill="none"
         stroke="#1565c0"
         paint-order="fill stroke markers"
         d="m 944.5,133 h -700"
         stroke-opacity="0.698039"
         stroke-linecap="round"
         stroke-linejoin="round"
         stroke-miterlimit="10"
         stroke-width="2.5"
         id="path2960" />
      <path
         fill="#000000"
         stroke="none"
         paint-order="stroke fill markers"
         d="m 894.5,483 -15.02602,9.01561 2.12132,2.12132 -187.97918,187.97919 c -0.48816,0.48815 -0.48816,1.27961 0,1.76776 0.24407,0.24408 0.56398,0.36612 0.88388,0.36612 0.3199,0 0.63981,-0.12204 0.88388,-0.36612 l 187.97919,-187.97918 2.12132,2.12132 z"
         fill-opacity="0.698039"
         id="path2962" />
      <path
         fill="#1565c0"
         stroke="none"
         paint-order="stroke fill markers"
         d="m 699.5,683 c 0,2.76142 -2.23858,5 -5,5 -2.76142,0 -5,-2.23858 -5,-5 0,-2.76142 2.23858,-5 5,-5 2.76142,0 5,2.23858 5,5 z"
         fill-opacity="1"
         id="path2964" />
      <path
         fill="none"
         stroke="#000000"
         paint-order="fill stroke markers"
         d="m 699.5,683 c 0,2.76142 -2.23858,5 -5,5 -2.76142,0 -5,-2.23858 -5,-5 0,-2.76142 2.23858,-5 5,-5 2.76142,0 5,2.23858 5,5 z"
         stroke-opacity="1"
         stroke-linecap="round"
         stroke-linejoin="round"
         stroke-miterlimit="10"
         id="path2966" />
      <text
         fill="#1565c0"
         stroke="none"
         font-family="geogebra-sans-serif, sans-serif"
         font-size="16px"
         font-style="normal"
         font-weight="normal"
         text-decoration="normal"
         x="699"
         y="673"
         text-anchor="start"
         dominant-baseline="alphabetic"
         fill-opacity="1"
         id="text2968">Player</text>
      <text
         fill="none"
         stroke="#ffffff"
         font-family="geogebra-sans-serif, sans-serif"
         font-size="16px"
         font-style="normal"
         font-weight="normal"
         text-decoration="normal"
         x="699"
         y="673"
         text-anchor="start"
         dominant-baseline="alphabetic"
         stroke-opacity="1"
         stroke-linejoin="bevel"
         stroke-miterlimit="10"
         stroke-width="3"
         id="text2970">Player</text>
      <text
         fill="#1565c0"
         stroke="none"
         font-family="geogebra-sans-serif, sans-serif"
         font-size="16px"
         font-style="normal"
         font-weight="normal"
         text-decoration="normal"
         x="699"
         y="673"
         text-anchor="start"
         dominant-baseline="alphabetic"
         fill-opacity="1"
         id="text2972">Player</text>
    </g>
  </g>
</svg>
